# xmcd
#
# Track frame offsets:
#	150
#	18240
#	36370
#	48027
#	62205
#	75766
#	93059
#	108989
#	126279
#	143398
#	156255
#	172048
#	186832
#	204586
#	222659
#	237618
#	255860
#	272115
#
# Disc length: 3848 seconds
#
# Revision: 1
# Processed by: cddbd v1.4PL0 Copyright (c) Steve Scherf et al.
# Submitted via: audiograbber 1.81.03
#
DISCID=f20f0612
DTITLE=Various Artist - Hott Country 67
DYEAR=2001
DGENRE=Country
TTITLE0=Gary Myrick - Honk If You Love Jesus
TTITLE1=Alan Jackson - Where I Come From
TTITLE2=Patty Loveless - The Boys Are Back In Town
TTITLE3=Terri Clark - Getting There
TTITLE4=Mark McGuinn - There's A Plan
TTITLE5=3 Of Hearts - Arizona Rain
TTITLE6=Clay Walker - If You Ever Feel like Lovin' Me Again
TTITLE7=Aaron Tippin - Always Was
TTITLE8=Joe Diffie - In Another World
TTITLE9=George Jones - The Man He Was
TTITLE10=Gary Allan - Man Of Me
TTITLE11=Daryle Singletary - Now And Again
TTITLE12=Bruce Guthro - Factory Line
TTITLE13=L.J. Daylee/Jamie Warren - What Do They Know
TTITLE14=Colin Linden/Lee Roy Parnell - Away Way Too Long
TTITLE15=Tim Rushlow - Crazy Life
TTITLE16=Lorrie Morgan/Sammy Kershaw - I Finally Found Someone
TTITLE17=Billy Yates - Shadows
EXTD=
EXTT0=
EXTT1=
EXTT2=
EXTT3=
EXTT4=
EXTT5=
EXTT6=
EXTT7=
EXTT8=
EXTT9=
EXTT10=
EXTT11=
EXTT12=
EXTT13=
EXTT14=
EXTT15=
EXTT16=
EXTT17=
PLAYORDER=
